HIERARCHY
ROOT pelvis
{
  OFFSET 0 100 0
  CHANNELS 6 Xposition Yposition Zposition Zrotation Xrotation Yrotation
  JOINT pelvis_right_femur
  {
    OFFSET -10.78128 -3.44521 -0.5502486
    CHANNELS 3 Zrotation Xrotation Yrotation
    JOINT right_femur_tibia
    {
      OFFSET -0.8047443 -44.0398 -0.1307829
      CHANNELS 3 Zrotation Xrotation Yrotation
      JOINT right_tibia_foot
      {
        OFFSET 3.006224 -47.83518 -5
        CHANNELS 3 Zrotation Xrotation Yrotation
        End Site
        {
          OFFSET 0 -5 15
        }
      }
    }
  }
  JOINT pelvis_left_femur
  {
    OFFSET 10.78128 -3.44521 -0.5502486
    CHANNELS 3 Zrotation Xrotation Yrotation
    JOINT left_femur_tibia
    {
      OFFSET 0.8047443 -44.0398 -0.1307829
      CHANNELS 3 Zrotation Xrotation Yrotation
      JOINT left_tibia_foot
      {
        OFFSET -4.370144 -48.10324 -4.275266
        CHANNELS 3 Zrotation Xrotation Yrotation
        End Site
        {
          OFFSET 0 -5 15
        }
      }
    }
  }
  JOINT pelvis_spine1
  {
    OFFSET 0 6.468898 -3.129235
    CHANNELS 3 Zrotation Xrotation Yrotation
    JOINT spine1
    {
      OFFSET 0 23.15396 4.99043
      CHANNELS 3 Zrotation Xrotation Yrotation
      JOINT spine2
      {
        OFFSET 0 20.79997 -5.064912
        CHANNELS 3 Zrotation Xrotation Yrotation
        JOINT neck
        {
          OFFSET 0 14.38658 9.616178
          CHANNELS 3 Zrotation Xrotation Yrotation
          End Site
          {
            OFFSET 0 20 0
          }
        }
      }
      JOINT right_manubrium
      {
        OFFSET -5.722621 16.35077 3.967754
        CHANNELS 3 Zrotation Xrotation Yrotation
        JOINT right_clavicle
        {
          OFFSET -13.16364 1.694482 -4.693211
          CHANNELS 3 Zrotation Xrotation Yrotation
          JOINT right_humerus
          {
            OFFSET -28.5034 -0.3100689 -2.792744
            CHANNELS 3 Zrotation Xrotation Yrotation
            JOINT right_radius
            {
              OFFSET -25.15693 0.02248979 -1.271978
              CHANNELS 3 Zrotation Xrotation Yrotation
              End Site
              {
                OFFSET -15 0 0
              }
            }
          }
        }
      }
      JOINT left_manubrium
      {
        OFFSET 5.722621 16.35077 3.967754
        CHANNELS 3 Zrotation Xrotation Yrotation
        JOINT left_clavicle
        {
          OFFSET 13.16364 1.694482 -4.693211
          CHANNELS 3 Zrotation Xrotation Yrotation
          JOINT left_humerus
          {
            OFFSET 29.39168 -1.063119 -2.237045
            CHANNELS 3 Zrotation Xrotation Yrotation
            JOINT left_radius
            {
              OFFSET 24.59957 -0.9528479 0.9047498
              CHANNELS 3 Zrotation Xrotation Yrotation
              End Site
              {
                OFFSET 15 -0 -0
              }
            }
          }
        }
      }
    }
  }
}
MOTION
Frames: 13
Frame Time: 0.0416666666667
-584.4163 106.9911 2986.86 -2.804664 -7.166584 -30.81533 0.08372637 -22.04288 -2.64607 -0 19.49091 -0 -5.037557 2.993391 -5.435104 -5.120718 14.61857 -8.243219 -0 13.53919 -0 -1.945994 -20.46697 15.09602 0.6586821 -3.142927 5.962582 0.3385048 16.95718 -7.321216 0.3471465 21.23513 5.022611 3.965147 -19.39449 4.050081 -0.6146131 -24.69177 13.39612 92.62398 19.19854 -19.80195 -0 0 16.3485 -23.98454 11.75998 9.242048 5.182697 -27.99368 -9.513109 -90.35649 8.395463 23.47103 0 0 -15.59241 15.07953 15.07231 -6.631815
-587.6202 105.8798 2992.085 -2.519996 -6.378721 -30.52497 0.8153736 -24.42228 -2.598305 -0 13.96505 -0 -4.630035 2.236822 -5.57953 -5.046412 16.35796 -7.91147 -0 15.48905 -0 -1.920867 -20.50628 14.6242 0.6638669 -3.219562 5.778544 0.4480104 17.03904 -7.666463 0.2633383 21.19787 5.33733 4.207508 -19.6268 4.142978 -0.6862338 -24.18463 13.45865 93.33794 19.12254 -21.34072 -0 0 15.08456 -24.09418 11.72523 8.664684 5.52549 -28.86472 -9.754455 -89.54282 8.048456 21.76083 0 0 -18.13129 15.96016 14.93857 -7.862245
-591.0323 104.8948 2997.54 -2.362708 -5.508008 -30.37561 1.80871 -25.43499 -2.200847 -0 10.67645 -0 -4.612172 1.726916 -5.569355 -4.875511 17.1408 -7.662471 -0 19.26381 -0 -2.122965 -19.47944 13.98043 0.6587671 -3.287292 5.654008 0.5211202 17.0762 -7.910401 0.2091726 21.15299 5.567548 4.380158 -19.77842 4.223391 -0.7370445 -23.81685 13.4958 93.81647 19.08324 -22.43079 -0 0 14.22178 -24.18795 11.75309 8.25594 5.798344 -29.48846 -9.90794 -88.9376 7.772129 20.50042 0 0 -20.06492 16.61034 14.83954 -8.775821
-594.63 104.2476 3003.185 -2.400912 -4.799339 -30.36502 2.933583 -24.83426 -1.472189 -0 9.65873 -0 -4.99137 1.247891 -5.513293 -4.592442 16.99044 -7.545457 -0 24.89976 -0 -2.657427 -17.46258 13.31445 0.6531304 -3.336004 5.586671 0.5626182 17.09494 -8.056181 0.1775094 21.11442 5.707072 4.485118 -19.86222 4.27382 -0.7626625 -23.60216 13.51763 94.08423 19.06622 -23.07783 -0 0 13.73765 -24.25169 11.79601 8.013719 5.972922 -29.86464 -9.993859 -88.5721 7.584777 19.74574 0 0 -21.25848 17.01194 14.77662 -9.342529
-598.366 104.0863 3008.933 -2.662263 -4.522746 -30.51573 3.997735 -22.539 -0.521589 -0 10.52168 -0 -5.61921 0.5905568 -5.502949 -4.236842 15.88614 -7.527867 -0 32.13378 -0 -3.421796 -14.72714 12.89244 0.6579719 -3.36218 5.573809 0.5788455 17.11857 -8.114426 0.1626287 21.08701 5.753222 4.520724 -19.89641 4.285162 -0.7721194 -23.55187 13.53193 94.18209 19.04561 -23.31563 -0 0 13.59923 -24.28196 11.8284 7.932668 6.029416 -30.01074 -10.03291 -88.45052 7.496371 19.51815 0 0 -21.68458 17.15192 14.7488 -9.538246
-602.1635 104.4581 3014.654 -3.109887 -4.831716 -30.86235 4.822502 -18.78519 0.454978 -0 12.41043 -0 -6.268059 -0.3168038 -5.535693 -3.873841 13.70202 -7.481205 -0 40.25182 -0 -4.169427 -11.75326 12.94529 0.6830518 -3.368749 5.615841 0.5751035 17.16434 -8.097126 0.1611709 21.06598 5.704261 4.481869 -19.8972 4.254794 -0.7798961 -23.67921 13.5436 94.14699 18.99502 -23.18134 -0 0 13.78799 -24.28312 11.84963 8.010431 5.957294 -29.94869 -10.0399 -88.56365 7.505371 19.8251 0 0 -21.38151 17.02048 14.75295 -9.343823
-605.9236 105.2836 3020.207 -3.638331 -5.625021 -31.41955 5.337999 -14.12284 1.24385 -0 14.18066 -0 -6.743379 -1.400927 -5.480642 -3.525971 10.22389 -7.241277 -0 48.03547 -0 -4.656449 -9.112612 13.51627 0.7342431 -3.364067 5.717656 0.5542181 17.24051 -8.013235 0.1724995 21.03759 5.55844 4.361442 -19.87325 4.185146 -0.7979528 -23.99921 13.55422 93.99649 18.89892 -22.69801 -0 0 14.31403 -24.26276 11.88295 8.250381 5.756669 -29.6947 -10.01885 -88.89831 7.596695 20.67079 0 0 -20.41728 16.61461 14.78273 -8.751026
-609.5485 106.3613 3025.486 -4.10572 -6.548139 -32.15533 5.60508 -9.204532 1.702208 -0 14.83873 -0 -6.9633 -2.593685 -5.161242 -3.117845 5.316524 -6.708548 -0 53.93765 -0 -4.769865 -7.234494 14.43413 0.8108894 -3.360156 5.886565 0.515987 17.34179 -7.86635 0.1993144 20.98165 5.314765 4.151736 -19.82238 4.084527 -0.8317878 -24.52261 13.56046 93.72195 18.76084 -21.8681 -0 0 15.21418 -24.22837 11.97247 8.660716 5.440744 -29.25405 -9.959587 -89.43732 7.744319 22.04904 0 0 -18.87812 15.94275 14.82905 -7.769922
-612.9698 107.4177 3030.474 -4.393272 -7.18151 -32.99749 5.737857 -4.505813 1.815045 -0 14.00256 -0 -6.959222 -3.98788 -4.511046 -2.501311 -0.8244467 -5.90134 -0 56.52527 -0 -4.560066 -6.215992 15.42924 0.9041495 -3.370037 6.127013 0.4575791 17.44489 -7.65509 0.2481549 20.87654 4.975636 3.846056 -19.7318 3.969603 -0.8822058 -25.24433 13.55229 93.29433 18.60428 -20.68116 -0 0 16.53086 -24.18662 12.17638 9.249397 5.037887 -28.62323 -9.83805 -90.15059 7.919745 23.91972 0 0 -16.88321 15.02862 14.88293 -6.434601
-616.1658 108.1913 3035.241 -4.457855 -7.276378 -33.86553 5.805018 -0.1936279 1.698099 -0 12.05249 -0 -6.8072 -5.813121 -3.655556 -1.563137 -7.557992 -4.933067 -0 55.02606 -0 -4.18349 -5.82893 16.28582 0.9979382 -3.404354 6.434328 0.3753735 17.50984 -7.377104 0.3280489 20.70612 4.551427 3.442496 -19.58406 3.866215 -0.9501158 -26.13174 13.51345 92.68269 18.46477 -19.13711 -0 0 18.27543 -24.14536 12.55208 10.01419 4.590645 -27.80122 -9.623386 -90.98427 8.102195 26.18124 0 0 -14.60791 13.91537 14.93805 -4.809111
-619.1609 108.5073 3039.903 -4.341525 -6.858432 -34.69721 5.789538 3.788783 1.538734 -0 9.873646 -0 -6.554667 -8.218458 -2.839276 -0.3369715 -13.9632 -3.972728 -0 49.67729 -0 -3.814887 -5.713026 16.92431 1.073277 -3.467703 6.790954 0.2680987 17.49206 -7.035763 0.4460543 20.46712 4.065441 2.950993 -19.36799 3.80432 -1.038619 -27.11976 13.42704 91.87878 18.37584 -17.27698 -0 0 20.39019 -24.11533 13.13161 10.93 4.149029 -26.80697 -9.292864 -91.86007 8.284212 28.6606 0 0 -12.28158 12.67041 14.99064 -2.993874
-622.0156 108.3122 3044.581 -4.135403 -6.164823 -35.45788 5.615333 7.539225 1.494663 -0 8.389268 -0 -6.210389 -11.02568 -2.264738 0.9603433 -19.17575 -3.221463 -0 41.67378 -0 -3.579325 -5.602541 17.39268 1.114503 -3.555331 7.167419 0.1394871 17.36167 -6.645362 0.6014899 20.17545 3.555241 2.40055 -19.08846 3.806631 -1.148997 -28.11784 13.28465 90.91486 18.35635 -15.20245 -0 0 22.73012 -24.10816 13.89484 11.94041 3.758555 -25.69191 -8.848532 -92.69181 8.470166 31.13623 0 0 -10.13728 11.38504 15.03849 -1.124469
-624.8138 107.6655 3049.382 -3.929739 -5.501022 -36.13885 5.205996 11.06601 1.609236 -0 8.188413 -0 -5.788583 -13.65343 -1.973806 2.002514 -22.67163 -2.866855 -0 32.75504 -0 -3.523956 -5.43857 17.80102 1.114035 -3.652084 7.527996 -0.001829353 17.11822 -6.230382 0.7832007 19.86752 3.066975 1.839939 -18.76762 3.877231 -1.274029 -29.02791 13.0935 89.8633 18.40616 -13.06682 -0 0 25.08101 -24.13009 14.75814 12.96145 3.448602 -24.53628 -8.324487 -93.41246 8.669912 33.38786 0 0 -8.33522 10.16151 15.08184 0.6469974
